<?xml version="1.0" standalone="no"?>
<!DOCTYPE svg PUBLIC "-//W3C//DTD SVG 20010904//EN"
 "http://www.w3.org/TR/2001/REC-SVG-20010904/DTD/svg10.dtd">
<svg version="1.0" xmlns="http://www.w3.org/2000/svg"
 width="372.000000pt" height="373.000000pt" viewBox="0 0 372.000000 373.000000"
 preserveAspectRatio="xMidYMid meet">

<g transform="translate(0.000000,373.000000) scale(0.100000,-0.100000)"
fill="#000000" stroke="none">
<path d="M3680 3710 c0 -20 -7 -20 -1825 -20 l-1825 0 0 -165 0 -165 1794 0
c986 0 1808 -3 1825 -6 l31 -6 0 -109 0 -109 -1825 0 -1825 0 0 -1550 c0
-1371 -2 -1550 -15 -1550 -8 0 -15 -7 -15 -15 0 -13 140 -15 1200 -15 l1200 0
0 31 c0 17 -7 37 -15 45 -8 9 -15 33 -15 55 0 28 -4 39 -15 39 -8 0 -15 7 -15
15 0 8 -7 15 -15 15 -8 0 -15 7 -15 15 0 8 -7 15 -15 15 -11 0 -15 11 -15 40
0 35 3 40 23 40 12 0 32 3 45 6 16 5 22 2 22 -10 0 -9 7 -19 15 -22 8 -4 15
-12 15 -20 0 -8 7 -14 15 -14 10 0 15 -10 15 -30 0 -20 5 -30 15 -30 13 0 15
35 15 254 l0 254 45 4 45 3 0 -177 c0 -152 2 -178 15 -178 12 0 15 13 15 55 0
42 3 55 15 55 8 0 15 6 15 14 0 12 28 25 52 26 4 0 9 -41 10 -92 2 -62 7 -93
16 -96 9 -3 12 16 12 71 0 69 2 75 23 81 12 3 25 6 30 6 4 0 7 -43 7 -95 0
-78 3 -95 15 -95 12 0 15 15 15 75 0 43 4 75 10 75 23 0 50 -41 50 -75 0 -24
5 -35 15 -35 12 0 15 -17 15 -95 0 -78 -3 -95 -15 -95 -12 0 -15 -13 -15 -59
0 -48 -3 -60 -17 -64 -10 -3 186 -5 435 -6 l452 -1 0 1865 c-1 1842 -1 1865
-20 1865 -13 0 -20 -7 -20 -20z m-662 -162 l3 -108 -106 0 -105 0 0 110 0 111
103 -3 102 -3 3 -107z m277 2 l0 -105 -107 -3 -108 -3 0 104 c0 57 3 107 7
111 4 4 52 5 107 4 l101 -3 0 -105z m280 0 l0 -105 -107 -3 -108 -3 0 104 c0
57 3 107 7 111 4 4 52 5 107 4 l101 -3 0 -105z m-55 -1900 l0 -1450 -305 0
-305 0 0 60 c0 47 -3 60 -15 60 -11 0 -15 11 -15 35 0 40 -25 85 -47 85 -8 0
-11 5 -8 10 3 6 46 10 96 10 l89 0 0 320 0 320 -1150 0 -1150 0 0 -320 0 -320
855 0 855 0 0 -75 c0 -41 0 -78 1 -82 0 -4 -4 -9 -10 -11 -6 -2 -11 3 -11 12
0 9 -7 16 -15 16 -8 0 -15 7 -15 15 0 12 -13 15 -60 15 l-60 0 0 -65 c0 -37 4
-65 10 -65 6 0 10 -4 10 -10 0 -7 -375 -10 -1105 -10 l-1105 0 0 1450 0 1450
1730 0 1730 0 0 -1450z m159 1385 l1 -65 -65 0 -65 0 0 65 0 65 64 0 64 0 1
-65z m-19 -717 c0 -343 -4 -627 -8 -633 -4 -5 -23 -11 -42 -12 -19 -1 -36 -6
-38 -12 -18 -54 -22 61 -22 634 l0 645 55 0 55 0 0 -622z m-11 -694 l31 -6 0
-624 0 -624 -65 0 -65 0 0 630 0 630 34 0 c18 0 48 -3 65 -6z m-705 -584 c4
-4 10 -451 7 -507 -1 -16 -266 -19 -276 -3 -8 13 -62 13 -70 0 -15 -25 -21 -4
-24 81 -3 110 -15 129 -78 129 -32 0 -43 -4 -43 -15 0 -8 -6 -15 -14 -15 -21
0 -26 -23 -26 -111 l0 -79 -792 0 c-436 0 -810 -3 -830 -6 l-38 -7 0 272 0
271 1089 -2 c599 -2 1092 -5 1095 -8z m720 -706 c12 -5 16 -21 16 -70 l0 -64
-65 0 -65 0 0 70 0 70 49 0 c27 0 56 -3 65 -6z m-3474 -229 l0 -65 -65 0 -65
0 0 65 0 65 65 0 65 0 0 -65z m1596 49 c-3 -9 -6 -33 -6 -55 l0 -39 -780 0
-780 0 0 55 0 55 786 0 c713 0 786 -1 780 -16z m532 10 c18 -5 22 -13 22 -50
0 -32 4 -44 15 -44 9 0 12 -6 9 -15 -5 -13 -44 -15 -265 -15 l-259 0 0 65 0
65 228 0 c125 0 237 -3 250 -6z m1032 -59 l0 -65 -232 2 -233 3 -3 43 c-2 33
0 42 12 42 9 0 16 9 16 20 0 19 7 20 220 20 l220 0 0 -65z m170 0 l0 -65 -64
0 c-73 0 -76 3 -76 81 l0 49 70 0 70 0 0 -65z m160 0 l0 -65 -65 0 -65 0 0 65
0 65 65 0 65 0 0 -65z"/>
<path d="M2855 3490 c3 -5 30 -10 60 -10 30 0 57 5 60 10 4 6 -18 10 -60 10
-42 0 -64 -4 -60 -10z"/>
<path d="M3123 3604 c-2 -6 -3 -36 -1 -65 l3 -54 68 -3 67 -3 0 65 0 64 -66 4
c-43 2 -68 -1 -71 -8z m125 -56 l-3 -43 -52 -3 -53 -3 0 45 0 46 56 0 55 0 -3
-42z"/>
<path d="M3410 3602 c0 -5 11 -19 25 -32 l25 -24 -27 -28 c-32 -33 -23 -51 10
-20 13 12 27 22 32 22 5 0 19 -10 32 -22 13 -12 26 -18 30 -14 5 4 -2 16 -14
26 -29 23 -29 38 -1 67 31 33 13 42 -20 10 l-28 -27 -24 25 c-24 25 -40 32
-40 17z"/>
<path d="M2500 2725 c0 -34 -1 -35 -40 -35 l-40 0 0 -40 c0 -40 0 -40 39 -40
39 0 40 1 43 38 3 34 6 37 36 40 31 3 32 3 32 -38 l0 -41 43 3 c43 3 42 2 46
61 1 13 10 17 36 17 33 0 35 2 35 35 0 34 -1 35 -40 35 -39 0 -40 -1 -40 -35
0 -33 -2 -35 -35 -35 -33 0 -35 2 -35 35 0 34 -1 35 -40 35 -39 0 -40 -1 -40
-35z"/>
<path d="M1067 2683 c-4 -3 -7 -21 -7 -40 0 -31 -2 -33 -35 -33 l-35 0 0 -185
0 -185 35 0 c34 0 35 -1 35 -40 l0 -40 120 0 120 0 0 40 c0 39 1 40 35 40 33
0 35 2 35 35 0 34 -1 35 -40 35 -39 0 -40 -1 -40 -35 l0 -35 -110 0 -110 0 0
185 0 185 110 0 110 0 0 -35 c0 -34 1 -35 40 -35 39 0 40 1 40 35 0 33 -2 35
-35 35 -34 0 -35 1 -35 40 l0 40 -113 0 c-63 0 -117 -3 -120 -7z"/>
<path d="M1520 2500 l0 -40 115 0 115 0 0 -35 0 -35 -115 0 -115 0 0 -40 c0
-39 -1 -40 -35 -40 -33 0 -35 -2 -35 -34 0 -32 3 -35 33 -38 29 -3 32 -6 35
-40 l3 -38 150 0 149 0 0 150 0 150 -35 0 c-34 0 -35 1 -35 40 l0 40 -115 0
-115 0 0 -40z m230 -225 l0 -35 -115 0 -115 0 0 35 0 35 115 0 115 0 0 -35z"/>
<path d="M1900 2390 l0 -150 35 0 c34 0 35 -1 35 -40 l0 -40 115 0 115 0 0 40
c0 39 1 40 35 40 l35 0 0 150 0 150 -35 0 -35 0 0 -150 0 -150 -115 0 -115 0
0 150 0 150 -35 0 -35 0 0 -150z"/>
<path d="M2420 2500 l0 -40 115 0 115 0 0 -35 0 -35 -115 0 -115 0 0 -40 c0
-39 -1 -40 -35 -40 -33 0 -35 -2 -35 -35 0 -33 2 -35 35 -35 34 0 35 -1 35
-40 l0 -40 155 0 155 0 0 150 0 150 -35 0 c-36 0 -35 -2 -39 60 -1 12 -23 16
-118 18 l-118 3 0 -41z m230 -225 l0 -35 -110 0 -110 0 0 35 0 35 110 0 110 0
0 -35z"/>
<path d="M1218 1698 c-2 -134 -2 -255 0 -270 l3 -28 150 0 149 0 0 34 c0 33 2
35 38 38 l37 3 3 193 2 192 -40 0 -40 0 0 40 0 40 -150 0 -149 0 -3 -242z
m302 -33 l0 -185 -110 0 -110 0 0 185 0 185 110 0 110 0 0 -185z"/>
<path d="M1750 1745 c0 -34 -1 -35 -40 -35 l-41 0 3 -117 3 -118 38 -3 c35 -3
37 -5 37 -38 l0 -34 110 0 110 0 0 40 0 40 -110 0 -110 0 0 35 0 35 110 0 110
0 0 40 0 40 40 0 40 0 0 40 0 40 -40 0 c-39 0 -40 1 -40 35 l0 35 -110 0 -110
0 0 -35z m220 -80 l0 -35 -110 0 -110 0 0 35 0 35 110 0 110 0 0 -35z"/>
<path d="M2120 1665 l0 -115 39 0 c39 0 40 -1 43 -37 3 -35 6 -38 36 -41 29
-3 32 -6 32 -38 0 -33 1 -34 40 -34 39 0 40 1 40 35 0 33 2 35 34 35 36 0 46
12 46 56 0 21 5 24 35 24 l35 0 0 115 0 115 -40 0 -40 0 0 -110 0 -110 -35 0
c-34 0 -35 -1 -35 -40 l0 -40 -40 0 -40 0 0 40 c0 39 -1 40 -35 40 l-35 0 0
110 0 110 -40 0 -40 0 0 -115z"/>
<path d="M3602 3038 c-19 -19 -14 -28 18 -28 17 0 30 4 30 8 0 9 -21 32 -30
32 -3 0 -11 -5 -18 -12z"/>
<path d="M1632 860 c-27 -45 0 -100 50 -100 24 0 28 -4 28 -30 0 -27 -3 -30
-34 -30 -19 0 -36 6 -39 13 -2 6 -8 9 -12 5 -14 -13 17 -38 47 -38 48 0 68 16
68 55 0 24 -5 35 -15 35 -8 0 -15 5 -15 10 0 6 -16 10 -35 10 -33 0 -35 2 -35
31 l0 32 50 -6 c29 -4 50 -2 50 3 0 6 -7 10 -15 10 -8 0 -15 5 -15 10 0 19
-65 11 -78 -10z"/>
<path d="M1768 854 c-5 -4 -8 -39 -8 -79 0 -72 10 -95 40 -95 13 1 12 3 -2 14
-11 8 -18 27 -18 49 0 24 6 40 18 46 16 10 16 12 1 24 -9 7 -18 21 -20 31 -2
10 -7 14 -11 10z"/>
<path d="M2050 776 c0 -47 2 -86 4 -86 2 0 11 -2 19 -6 11 -4 13 4 9 45 -3 33
0 56 8 66 8 9 8 15 2 15 -6 0 -12 10 -14 22 -2 12 -9 23 -15 26 -10 3 -13 -18
-13 -82z"/>
<path d="M1860 805 c0 -10 11 -15 35 -15 19 0 35 -4 35 -10 0 -5 -13 -10 -30
-10 -34 0 -70 -26 -70 -52 0 -23 30 -38 79 -38 l41 0 0 55 c0 30 -4 55 -10 55
-5 0 -10 7 -10 15 0 10 -11 15 -35 15 -24 0 -35 -5 -35 -15z m70 -85 c0 -16
-7 -20 -35 -20 -28 0 -35 4 -35 20 0 16 7 20 35 20 28 0 35 -4 35 -20z"/>
<path d="M1977 813 c-4 -3 -7 -35 -7 -70 0 -49 3 -63 15 -63 12 0 15 13 15 55
0 30 5 55 10 55 6 0 10 7 10 15 0 15 -31 21 -43 8z"/>
<path d="M3590 283 c0 -5 7 -17 15 -27 15 -20 15 -20 30 0 21 28 18 34 -15 34
-16 0 -30 -3 -30 -7z"/>
<path d="M116 115 c-20 -15 -20 -15 0 -30 28 -21 34 -18 34 15 0 33 -6 36 -34
15z"/>
<path d="M3430 100 c0 -33 11 -38 30 -15 10 12 10 18 0 30 -19 23 -30 18 -30
-15z"/>
</g>
</svg>
